<svg xmlns="http://www.w3.org/2000/svg" viewBox="0 0 126.934 46.637">
  <defs>
    <style>
      .cls-1 {
        fill: #fff;
      }

      .cls-2 {
        fill: #e04e39;
      }
    </style>
  </defs>
  <g id="logo" transform="translate(-128 -2407)">
    <path id="Path_2" data-name="Path 2" class="cls-1" d="M44.429,97.647h2.323l-.041-2.49c0-.124.041-.249-.041-.249s-.166.124-.249.249Zm.954-3.734A2.1,2.1,0,0,1,47.291,93c.705,0,1.161.166,1.2.913l.207,7.054H46.669V99.182H43.35l-1.41,1.784H39.7Z" transform="translate(104.768 2352.588)"/>
    <path id="Path_3" data-name="Path 3" class="cls-1" d="M73.1,99.8a1.851,1.851,0,0,1-1.908,1.245c-.539,0-1.079-.083-1.244-.705L68.79,95.7c-.041-.124-.083-.207-.166-.207-.041,0-.124.041-.207.207l-1.991,5.269H64.6l2.613-6.722A1.944,1.944,0,0,1,69.2,93c.581,0,1.037.166,1.2.664l1.161,4.689c0,.083.041.207.124.207.124,0,.166-.124.207-.207l1.991-5.27h1.825Z" transform="translate(90.197 2352.588)"/>
    <path id="Path_4" data-name="Path 4" class="cls-1" d="M92.029,97.647h2.323l-.041-2.49c0-.124.041-.249-.041-.249s-.166.124-.249.249Zm.954-3.734A2.1,2.1,0,0,1,94.891,93c.705,0,1.161.166,1.2.913l.207,7.054H94.269V99.182H90.95l-1.41,1.784H87.3Z" transform="translate(76.913 2352.588)"/>
    <path id="Path_5" data-name="Path 5" class="cls-1" d="M113.81,101.084c-.622,0-.913-.332-.83-.871a1.283,1.283,0,0,1,.083-.332l2.613-6.68h2.033l-2.24,5.767a.451.451,0,0,0-.042.207c-.041.249.083.332.373.332h4.065l-.622,1.577Z" transform="translate(61.894 2352.47)"/>
    <path id="Path_6" data-name="Path 6" class="cls-1" d="M139.813,93.2h2.281l-5.559,5.56-.913,2.324h-1.991l.871-2.324-1.2-5.56h2.074l.747,3.776Z" transform="translate(49.995 2352.47)"/>
    <path id="Path_7" data-name="Path 7" class="cls-1" d="M156.2,101.084l2.447-6.307H155.7l.622-1.577H164.2l-.622,1.577h-2.9l-2.489,6.307Z" transform="translate(36.887 2352.47)"/>
    <path id="Path_8" data-name="Path 8" class="cls-1" d="M172.6,101.084l3.07-7.884H177.7l-3.07,7.884Z" transform="translate(26.997 2352.47)"/>
    <path id="Path_9" data-name="Path 9" class="cls-1" d="M187.353,101.025c-2.116,0-2.738-1.079-2.447-2.738a7.842,7.842,0,0,1,.415-1.452c.954-2.49,2.116-3.734,4.853-3.734h3.277l-.622,1.577h-2.24c-1.784,0-2.489.456-3.236,2.365a5.97,5.97,0,0,0-.332,1.079c-.166,1,.332,1.286,1.742,1.286h2.364l-.622,1.577h-3.153Z" transform="translate(19.836 2352.53)"/>
    <path id="Path_10" data-name="Path 10" class="cls-1" d="M202.964,99.507h4.356a.781.781,0,0,0,.83-.705c.042-.207-.042-.373-.415-.5l-2.613-.913c-.705-.249-.913-.788-.788-1.577a5.014,5.014,0,0,1,.207-.747,2.451,2.451,0,0,1,2.572-1.867h4.853l-.622,1.577h-4.065a.739.739,0,0,0-.788.664c-.042.207.083.415.415.5l2.364.83a1.307,1.307,0,0,1,1.037,1.66,2.412,2.412,0,0,1-.207.664,2.512,2.512,0,0,1-2.572,1.992H202.3Z" transform="translate(9.617 2352.47)"/>
    <path id="Path_11" data-name="Path 11" class="cls-1" d="M63.756,13.087h9.956c2.24,0,3.526-.871,4.521-3.4a10.093,10.093,0,0,0,.373-1.245c.249-1.411-.456-2.075-2.323-2.075h-7.84c-1.618,0-2.24.456-2.862,2.075Zm-4.148,10.7a6.222,6.222,0,0,0-.332,1.12c-.166.913.332,1.2,1.742,1.2h7.716c2.489,0,3.941-.954,4.895-3.527a7.859,7.859,0,0,0,.415-1.328c.29-1.577-.539-2.158-2.406-2.158h-10.2Zm22.9-2.49a11.712,11.712,0,0,1-.747,2.573c-2.157,5.477-4.6,8.506-11.615,8.506H52.805c-2.53,0-3.733-1.369-3.319-3.61a9.241,9.241,0,0,1,.373-1.328L58.571,5.079C59.94,1.635,61.931.1,65.416.1h15.97c4.563,0,6.679,2.614,5.932,6.971A19.232,19.232,0,0,1,86.7,9.519c-1.079,3.319-2.987,5.726-7.218,6.307l-.083.166c2.655.456,3.609,2.49,3.111,5.311" transform="translate(99.088 2406.942)"/>
    <path id="Path_12" data-name="Path 12" class="cls-1" d="M146.3,33.859c-.5,2.78.705,4.108,4.356,4.108,4.853,0,6.927-1.909,8.836-6.722a26.389,26.389,0,0,0,1-3.568c.5-2.78-.581-4.108-4.273-4.108-4.853,0-7.01,1.909-8.877,6.722a26.178,26.178,0,0,0-1.037,3.568m21.612-6.265a22.488,22.488,0,0,1-1.079,4.108c-3.65,10-8.3,11.576-17.754,11.576-7.8,0-11.366-2.365-10.122-9.211a25.184,25.184,0,0,1,1.161-4.191c3.609-9.958,8.3-11.576,17.754-11.576,7.8-.041,11.241,2.365,10.039,9.294" transform="translate(46.826 2396.294)"/>
    <path id="Path_13" data-name="Path 13" class="cls-1" d="M222.669,0h7.176L217.276,32.281H210.1Z" transform="translate(5.053 2407)"/>
    <path id="Path_14" data-name="Path 14" class="cls-1" d="M261.568,32.281c-4.19,0-7.218-1.909-6.513-6.058a17.9,17.9,0,0,1,.581-2.075l4.314-11h-3.4l2.033-5.311h3.4L265.053,0h7.176L269.2,7.842h6.927L274.1,13.153h-6.927l-3.277,8.381a16.459,16.459,0,0,0-.581,1.95c-.415,2.448.871,3.527,4.024,3.527h1.327l-2.074,5.311h-5.019Z" transform="translate(-21.195 2407)"/>
    <path id="Path_15" data-name="Path 15" class="cls-2" d="M23.769,12.562,25.76,7.5H4.314a2.545,2.545,0,0,0-2.2,1.286L0,12.562H23.769Z" transform="translate(128 2402.612)"/>
    <path id="Path_16" data-name="Path 16" class="cls-2" d="M26.611,26.4H10.6a1.813,1.813,0,0,0-1.576.913L6.7,31.462H24.62Z" transform="translate(124.079 2391.554)"/>
    <path id="Path_17" data-name="Path 17" class="cls-2" d="M29.1,45.2H20.473a2.376,2.376,0,0,0-2.116,1.245L16.2,50.262H27.11Z" transform="translate(118.52 2380.554)"/>
  </g>
</svg>